<svg xmlns="http://www.w3.org/2000/svg" viewBox="0 0 128 128"><defs><style>.cls-1{isolation:isolate;}.cls-2{mix-blend-mode:multiply;}.cls-3{fill:#e05951;}.cls-4{fill:#e2bc00;}.cls-5{fill:none;stroke:#093357;stroke-linecap:round;stroke-linejoin:round;stroke-width:4px;}.cls-6{fill:#093357;}</style></defs><title>sun</title><g class="cls-1"><g id="icons" class="cls-2"><path class="cls-3" d="M71.93,21.39l2.34-4.22a2.27,2.27,0,0,1,4.25,1.14l-.08,4.83a9.07,9.07,0,0,0,13.73,7.93l4.14-2.48a2.27,2.27,0,0,1,3.11,3.11l-2.48,4.14a9.07,9.07,0,0,0,7.93,13.73l4.83-.08a2.27,2.27,0,0,1,1.14,4.25l-4.22,2.34a9.07,9.07,0,0,0,0,15.86l4.22,2.34a2.27,2.27,0,0,1-1.14,4.25l-4.83-.08a9.07,9.07,0,0,0-7.93,13.73l2.48,4.14a2.27,2.27,0,0,1-3.11,3.11l-4.14-2.48a9.07,9.07,0,0,0-13.73,7.93l.08,4.83a2.27,2.27,0,0,1-4.25,1.14l-2.34-4.22a9.07,9.07,0,0,0-15.86,0l-2.34,4.22a2.27,2.27,0,0,1-4.25-1.14l.08-4.83a9.07,9.07,0,0,0-13.73-7.93l-4.14,2.48a2.27,2.27,0,0,1-3.11-3.11l2.48-4.14a9.07,9.07,0,0,0-7.93-13.73l-4.83.08a2.27,2.27,0,0,1-1.14-4.25l4.22-2.34a9.07,9.07,0,0,0,0-15.86l-4.22-2.34a2.27,2.27,0,0,1,1.14-4.25l4.83.08a9.07,9.07,0,0,0,7.93-13.73l-2.48-4.14a2.27,2.27,0,0,1,3.11-3.11l4.14,2.48a9.07,9.07,0,0,0,13.73-7.93l-.08-4.83a2.27,2.27,0,0,1,4.25-1.14l2.34,4.22A9.07,9.07,0,0,0,71.93,21.39Z"/><circle class="cls-4" cx="64" cy="64" r="30"/><path class="cls-5" d="M54,80.1S69,84.17,78,75"/><path class="cls-6" d="M76.67,51c-7.58,0-10.4,1.64-10.64,4H62c-.25-2.36-3.06-4-10.64-4C46.15,51,42,53,42,58s2.07,9,7.26,9,8.88-4,11.41-8h6.66c2.52,4,6.22,8,11.41,8S86,63,86,58,81.85,51,76.67,51Z"/></g></g></svg>